<svg width="48" height="48" viewBox="0 0 48 48" fill="none" xmlns="http://www.w3.org/2000/svg">
<rect width="48" height="48" fill="#010116"/>
<path d="M45.0938 7L44.7422 8.54688C44.3047 8.5625 43.7578 8.63281 43.1016 8.75781C42.4453 8.88281 41.9453 9 41.6016 9.10938C40.9922 9.3125 40.5547 9.63281 40.2891 10.0703C40.0234 10.5078 39.8281 10.9766 39.7031 11.4766L34.125 35.6875C34.0938 35.8125 34.0703 35.9531 34.0547 36.1094C34.0391 36.2656 34.0312 36.3984 34.0312 36.5078C34.0312 36.8359 34.1016 37.125 34.2422 37.375C34.3828 37.625 34.6094 37.8516 34.9219 38.0547C35.1562 38.1953 35.5781 38.3359 36.1875 38.4766C36.8125 38.6172 37.3438 38.6953 37.7812 38.7109L37.4297 40.2578H23.625L23.9766 38.7109C24.3672 38.6797 24.9219 38.6328 25.6406 38.5703C26.3594 38.5078 26.8672 38.4141 27.1641 38.2891C27.7109 38.0859 28.1328 37.7891 28.4297 37.3984C28.7266 37.0078 28.9375 36.5234 29.0625 35.9453L31.8281 23.9453H16.1953L13.5 35.6875C13.4688 35.8125 13.4453 35.9453 13.4297 36.0859C13.4141 36.2266 13.4062 36.3594 13.4062 36.4844C13.4062 36.7969 13.4766 37.0938 13.6172 37.375C13.7734 37.6562 14 37.8828 14.2969 38.0547C14.5312 38.1953 14.9531 38.3359 15.5625 38.4766C16.1875 38.6172 16.7188 38.6953 17.1562 38.7109L16.8047 40.2578H3L3.35156 38.7109C3.74219 38.6797 4.29688 38.6328 5.01562 38.5703C5.73438 38.5078 6.24219 38.4141 6.53906 38.2891C7.08594 38.0859 7.50781 37.7891 7.80469 37.3984C8.10156 37.0078 8.3125 36.5234 8.4375 35.9453L14.0391 11.7109C14.0703 11.5859 14.0938 11.4609 14.1094 11.3359C14.125 11.1953 14.1328 11.0547 14.1328 10.9141C14.1328 10.5703 14.0625 10.2734 13.9219 10.0234C13.7969 9.77344 13.5625 9.55469 13.2188 9.36719C12.8438 9.16406 12.375 8.98438 11.8125 8.82812C11.25 8.67188 10.75 8.57812 10.3125 8.54688L10.6641 7H24.4688L24.1172 8.54688C23.6797 8.5625 23.1328 8.63281 22.4766 8.75781C21.8203 8.88281 21.3203 9 20.9766 9.10938C20.3672 9.3125 19.9297 9.63281 19.6641 10.0703C19.3984 10.5078 19.2031 10.9766 19.0781 11.4766L16.6875 21.9531H32.3203L34.6641 11.7109C34.6953 11.5859 34.7188 11.4609 34.7344 11.3359C34.75 11.1953 34.7578 11.0625 34.7578 10.9375C34.7578 10.5938 34.6875 10.2969 34.5469 10.0469C34.4219 9.78125 34.1875 9.55469 33.8438 9.36719C33.4688 9.16406 33 8.98438 32.4375 8.82812C31.875 8.67188 31.375 8.57812 30.9375 8.54688L31.2891 7H45.0938Z" fill="white"/>
</svg>
