<svg width="100" height="100" viewBox="0 0 100 100" fill="none" xmlns="http://www.w3.org/2000/svg">
<path d="M9.52438 55.4579V50.1678H11.3739C11.7424 50.1678 12.0463 50.2315 12.2857 50.3589C12.525 50.4846 12.7033 50.6543 12.8204 50.8678C12.9375 51.0796 12.996 51.3147 12.996 51.573C12.996 51.8003 12.9556 51.988 12.8746 52.1361C12.7954 52.2842 12.6904 52.4013 12.5595 52.4874C12.4303 52.5735 12.29 52.6372 12.1384 52.6785V52.7302C12.3003 52.7405 12.4631 52.7974 12.6266 52.9007C12.7902 53.004 12.9271 53.1521 13.0374 53.345C13.1476 53.5378 13.2027 53.7738 13.2027 54.0527C13.2027 54.3179 13.1424 54.5564 13.0219 54.7682C12.9013 54.98 12.711 55.1479 12.451 55.2719C12.191 55.3959 11.8526 55.4579 11.4359 55.4579H9.52438ZM10.165 54.8896H11.4359C11.8543 54.8896 12.1514 54.8087 12.327 54.6468C12.5044 54.4832 12.5931 54.2852 12.5931 54.0527C12.5931 53.8736 12.5474 53.7083 12.4562 53.5568C12.3649 53.4035 12.2349 53.2813 12.0661 53.19C11.8974 53.097 11.6976 53.0505 11.4669 53.0505H10.165V54.8896ZM10.165 52.4926H11.3532C11.5461 52.4926 11.72 52.4547 11.875 52.3789C12.0317 52.3031 12.1557 52.1964 12.2469 52.0586C12.3399 51.9208 12.3864 51.759 12.3864 51.573C12.3864 51.3405 12.3055 51.1433 12.1436 50.9815C11.9817 50.8179 11.7252 50.7361 11.3739 50.7361H10.165V52.4926ZM34.2222 55.4579V50.1678H37.4149V50.7361H34.8628V52.5236H37.2495V53.0918H34.8628V54.8896H37.4562V55.4579H34.2222ZM58.5364 50.1678H59.301L61.0988 54.559H61.1608L62.9586 50.1678H63.7232V55.4579H63.1239V51.4387H63.0723L61.4191 55.4579H60.8405L59.1873 51.4387H59.1357V55.4579H58.5364V50.1678ZM85.0759 52.4829H85.6069C86.0821 52.4829 86.4943 52.4805 86.8435 52.4756C87.1975 52.4659 87.5248 52.4465 87.8254 52.4174C88.1261 52.3883 88.4292 52.3495 88.7347 52.301L88.8001 52.7811C88.4801 52.8345 88.1673 52.8757 87.8618 52.9048C87.5563 52.929 87.2241 52.946 86.8653 52.9557C86.5064 52.9654 86.087 52.9702 85.6069 52.9702H85.0759V52.4829ZM85.0759 49.8424H88.2037V50.3371H85.6796V52.7302H85.0759V49.8424ZM85.4832 51.1445H88.0218V51.6246H85.4832V51.1445ZM89.4839 49.4497H90.0876V53.3703H89.4839V49.4497ZM85.8397 53.6976H90.0876V55.938H85.8397V53.6976ZM89.4984 54.1777H86.4288V55.4434H89.4984V54.1777Z" fill="black"/>
<path d="M9.38977 70.0058V69.5408L11.1359 67.6293C11.3408 67.4055 11.5096 67.2109 11.6422 67.0456C11.7748 66.8785 11.873 66.7218 11.9367 66.5754C12.0021 66.4273 12.0348 66.2724 12.0348 66.1105C12.0348 65.9245 11.9901 65.7635 11.9005 65.6275C11.8127 65.4914 11.6921 65.3864 11.5389 65.3123C11.3856 65.2383 11.2134 65.2012 11.0223 65.2012C10.8191 65.2012 10.6417 65.2434 10.4902 65.3278C10.3403 65.4105 10.2241 65.5267 10.1414 65.6765C10.0605 65.8263 10.02 66.002 10.02 66.2035H9.41043C9.41043 65.8935 9.4819 65.6214 9.62483 65.3872C9.76776 65.153 9.96235 64.9705 10.2086 64.8396C10.4566 64.7087 10.7347 64.6433 11.0429 64.6433C11.3529 64.6433 11.6276 64.7087 11.8669 64.8396C12.1063 64.9705 12.294 65.147 12.43 65.3691C12.5661 65.5913 12.6341 65.8384 12.6341 66.1105C12.6341 66.3051 12.5988 66.4954 12.5282 66.6813C12.4593 66.8656 12.3388 67.0714 12.1666 67.2987C11.9961 67.5243 11.7593 67.7998 11.4562 68.1253L10.268 69.3961V69.4375H12.7271V70.0058H9.38977ZM18.1744 70.0781C17.7852 70.0781 17.4537 69.9722 17.1799 69.7604C16.9061 69.5468 16.6969 69.2377 16.5522 68.833C16.4076 68.4266 16.3352 67.9359 16.3352 67.3607C16.3352 66.789 16.4076 66.3008 16.5522 65.8961C16.6986 65.4897 16.9087 65.1797 17.1825 64.9662C17.458 64.7509 17.7886 64.6433 18.1744 64.6433C18.5601 64.6433 18.8899 64.7509 19.1637 64.9662C19.4392 65.1797 19.6493 65.4897 19.794 65.8961C19.9403 66.3008 20.0135 66.789 20.0135 67.3607C20.0135 67.9359 19.9412 68.4266 19.7965 68.833C19.6519 69.2377 19.4427 69.5468 19.1689 69.7604C18.895 69.9722 18.5636 70.0781 18.1744 70.0781ZM18.1744 69.5098C18.5601 69.5098 18.8597 69.3238 19.0733 68.9519C19.2868 68.5799 19.3936 68.0495 19.3936 67.3607C19.3936 66.9026 19.3445 66.5126 19.2463 66.1906C19.1499 65.8685 19.0104 65.6231 18.8279 65.4544C18.6471 65.2856 18.4292 65.2012 18.1744 65.2012C17.7921 65.2012 17.4933 65.3898 17.278 65.7669C17.0628 66.1423 16.9552 66.6736 16.9552 67.3607C16.9552 67.8188 17.0034 68.2079 17.0998 68.5282C17.1963 68.8485 17.3349 69.0922 17.5157 69.2592C17.6982 69.4263 17.9178 69.5098 18.1744 69.5098ZM23.6501 70.0058V69.5408L25.3962 67.6293C25.6011 67.4055 25.7699 67.2109 25.9025 67.0456C26.0351 66.8785 26.1333 66.7218 26.197 66.5754C26.2624 66.4273 26.2951 66.2724 26.2951 66.1105C26.2951 65.9245 26.2504 65.7635 26.1608 65.6275C26.073 65.4914 25.9524 65.3864 25.7992 65.3123C25.6459 65.2383 25.4737 65.2012 25.2826 65.2012C25.0794 65.2012 24.902 65.2434 24.7505 65.3278C24.6006 65.4105 24.4844 65.5267 24.4017 65.6765C24.3208 65.8263 24.2803 66.002 24.2803 66.2035H23.6707C23.6707 65.8935 23.7422 65.6214 23.8851 65.3872C24.0281 65.153 24.2226 64.9705 24.4689 64.8396C24.7169 64.7087 24.995 64.6433 25.3032 64.6433C25.6132 64.6433 25.8879 64.7087 26.1272 64.8396C26.3666 64.9705 26.5543 65.147 26.6903 65.3691C26.8264 65.5913 26.8944 65.8384 26.8944 66.1105C26.8944 66.3051 26.8591 66.4954 26.7885 66.6813C26.7196 66.8656 26.5991 67.0714 26.4269 67.2987C26.2564 67.5243 26.0196 67.7998 25.7165 68.1253L24.5283 69.3961V69.4375H26.9874V70.0058H23.6501ZM30.4715 68.9209V68.3939L32.7963 64.7156H33.1786V65.5319H32.9203L31.1638 68.3113V68.3526H34.2945V68.9209H30.4715ZM32.9616 70.0058V68.7607V68.5153V64.7156H33.5712V70.0058H32.9616ZM42.7112 70.0058V64.7156H44.4987C44.9137 64.7156 45.253 64.7905 45.5164 64.9404C45.7816 65.0885 45.9779 65.2891 46.1054 65.5422C46.2328 65.7954 46.2965 66.0778 46.2965 66.3895C46.2965 66.7011 46.2328 66.9844 46.1054 67.2393C45.9797 67.4941 45.7851 67.6974 45.5216 67.8489C45.2581 67.9987 44.9206 68.0736 44.509 68.0736H43.2278V67.5053H44.4884C44.7725 67.5053 45.0007 67.4563 45.1729 67.3581C45.3451 67.26 45.4699 67.1274 45.5474 66.9603C45.6266 66.7916 45.6663 66.6013 45.6663 66.3895C45.6663 66.1776 45.6266 65.9882 45.5474 65.8212C45.4699 65.6541 45.3442 65.5233 45.1703 65.4286C44.9964 65.3321 44.7656 65.2839 44.478 65.2839H43.3518V70.0058H42.7112ZM49.9834 70.0058V64.7156H51.7709C52.1842 64.7156 52.5235 64.7862 52.7887 64.9274C53.0539 65.0669 53.2502 65.2589 53.3776 65.5035C53.505 65.748 53.5687 66.0261 53.5687 66.3378C53.5687 66.6495 53.505 66.9259 53.3776 67.167C53.2502 67.408 53.0547 67.5975 52.7912 67.7352C52.5278 67.8713 52.1911 67.9393 51.7813 67.9393H50.3347V67.3607H51.7606C52.043 67.3607 52.2703 67.3194 52.4425 67.2367C52.6165 67.154 52.7422 67.0369 52.8197 66.8854C52.8989 66.7321 52.9385 66.5496 52.9385 66.3378C52.9385 66.126 52.8989 65.9409 52.8197 65.7824C52.7404 65.624 52.6139 65.5017 52.4399 65.4156C52.266 65.3278 52.0361 65.2839 51.7503 65.2839H50.624V70.0058H49.9834ZM52.4735 67.6293L53.7754 70.0058H53.0315L51.7503 67.6293H52.4735ZM61.7547 67.3607C61.7547 67.9186 61.654 68.4008 61.4525 68.8072C61.251 69.2136 60.9746 69.527 60.6233 69.7474C60.272 69.9679 59.8708 70.0781 59.4196 70.0781C58.9685 70.0781 58.5672 69.9679 58.2159 69.7474C57.8646 69.527 57.5882 69.2136 57.3868 68.8072C57.1853 68.4008 57.0845 67.9186 57.0845 67.3607C57.0845 66.8027 57.1853 66.3206 57.3868 65.9142C57.5882 65.5078 57.8646 65.1944 58.2159 64.9739C58.5672 64.7535 58.9685 64.6433 59.4196 64.6433C59.8708 64.6433 60.272 64.7535 60.6233 64.9739C60.9746 65.1944 61.251 65.5078 61.4525 65.9142C61.654 66.3206 61.7547 66.8027 61.7547 67.3607ZM61.1348 67.3607C61.1348 66.9026 61.0582 66.516 60.9049 66.2009C60.7534 65.8858 60.5476 65.6473 60.2875 65.4854C60.0292 65.3235 59.7399 65.2426 59.4196 65.2426C59.0993 65.2426 58.8092 65.3235 58.5491 65.4854C58.2908 65.6473 58.085 65.8858 57.9318 66.2009C57.7802 66.516 57.7045 66.9026 57.7045 67.3607C57.7045 67.8188 57.7802 68.2054 57.9318 68.5205C58.085 68.8356 58.2908 69.0741 58.5491 69.236C58.8092 69.3979 59.0993 69.4788 59.4196 69.4788C59.7399 69.4788 60.0292 69.3979 60.2875 69.236C60.5476 69.0741 60.7534 68.8356 60.9049 68.5205C61.0582 68.2054 61.1348 67.8188 61.1348 67.3607ZM67.512 64.7156H68.1526V68.4972C68.1526 68.8348 68.0906 69.1215 67.9666 69.3574C67.8426 69.5933 67.6678 69.7724 67.4422 69.8947C67.2166 70.0169 66.9506 70.0781 66.6441 70.0781C66.3548 70.0781 66.0973 70.0256 65.8717 69.9205C65.6461 69.8137 65.4688 69.6622 65.3396 69.4659C65.2105 69.2696 65.1459 69.0362 65.1459 68.7659H65.7761C65.7761 68.9157 65.8132 69.0466 65.8872 69.1585C65.963 69.2687 66.0663 69.3548 66.1972 69.4168C66.3281 69.4788 66.477 69.5098 66.6441 69.5098C66.8283 69.5098 66.985 69.4711 67.1142 69.3936C67.2433 69.3161 67.3415 69.2024 67.4086 69.0526C67.4775 68.9011 67.512 68.7159 67.512 68.4972V64.7156ZM72.0913 70.0058V64.7156H75.284V65.2839H72.7319V67.0714H75.1187V67.6397H72.7319V69.4375H75.3253V70.0058H72.0913ZM83.3505 66.3688H82.7099C82.672 66.1845 82.6057 66.0227 82.511 65.8832C82.418 65.7437 82.3044 65.6266 82.1701 65.5319C82.0375 65.4354 81.8902 65.3631 81.7283 65.3149C81.5665 65.2667 81.3977 65.2426 81.2221 65.2426C80.9018 65.2426 80.6116 65.3235 80.3516 65.4854C80.0933 65.6473 79.8875 65.8858 79.7342 66.2009C79.5827 66.516 79.5069 66.9026 79.5069 67.3607C79.5069 67.8188 79.5827 68.2054 79.7342 68.5205C79.8875 68.8356 80.0933 69.0741 80.3516 69.236C80.6116 69.3979 80.9018 69.4788 81.2221 69.4788C81.3977 69.4788 81.5665 69.4547 81.7283 69.4065C81.8902 69.3583 82.0375 69.2868 82.1701 69.1921C82.3044 69.0957 82.418 68.9777 82.511 68.8382C82.6057 68.697 82.672 68.5351 82.7099 68.3526H83.3505C83.3023 68.6229 83.2145 68.8649 83.087 69.0784C82.9596 69.292 82.8012 69.4736 82.6118 69.6235C82.4223 69.7716 82.2097 69.8843 81.9737 69.9618C81.7395 70.0393 81.489 70.0781 81.2221 70.0781C80.7709 70.0781 80.3697 69.9679 80.0184 69.7474C79.6671 69.527 79.3907 69.2136 79.1892 68.8072C78.9877 68.4008 78.887 67.9186 78.887 67.3607C78.887 66.8027 78.9877 66.3206 79.1892 65.9142C79.3907 65.5078 79.6671 65.1944 80.0184 64.9739C80.3697 64.7535 80.7709 64.6433 81.2221 64.6433C81.489 64.6433 81.7395 64.682 81.9737 64.7595C82.2097 64.837 82.4223 64.9507 82.6118 65.1005C82.8012 65.2486 82.9596 65.4294 83.087 65.6429C83.2145 65.8548 83.3023 66.0967 83.3505 66.3688ZM86.7514 65.2839V64.7156H90.719V65.2839H89.0555V70.0058H88.4149V65.2839H86.7514Z" fill="black"/>
<path d="M8.89469 30.1223H12.6589V36.1997H8.89469V30.1223ZM11.8079 30.8425H9.74574V35.4796H11.8079V30.8425ZM16.0631 28.9767H16.936V38.851H16.0631V28.9767ZM12.2116 32.6973H14.4811V33.4393H12.2116V32.6973ZM14.0992 29.184H14.9611V38.3491H14.0992V29.184ZM25.2602 28.9767H26.1658V38.8401H25.2602V28.9767ZM25.9257 32.981H27.7369V33.7338H25.9257V32.981ZM22.7398 30.0351H23.6235C23.6235 30.9734 23.4708 31.8717 23.1653 32.73C22.8598 33.5811 22.3797 34.3703 21.725 35.0977C21.0704 35.8178 20.2084 36.4434 19.1392 36.9744L18.6373 36.2761C19.5538 35.8178 20.3139 35.2832 20.9176 34.6722C21.5286 34.0539 21.9833 33.3701 22.2815 32.6209C22.587 31.8644 22.7398 31.0498 22.7398 30.1769V30.0351ZM19.0955 30.0351H23.198V30.7879H19.0955V30.0351ZM32.7224 30.0023H33.5952C33.5952 30.7152 33.5225 31.4098 33.377 32.0863C33.2388 32.7628 32.9988 33.4102 32.6569 34.0284C32.3223 34.6467 31.8677 35.225 31.293 35.7633C30.7257 36.3015 30.0055 36.7889 29.1327 37.2253L28.6308 36.527C29.3873 36.1415 30.0274 35.716 30.5511 35.2505C31.0748 34.7849 31.4967 34.283 31.8168 33.7448C32.1368 33.2065 32.3659 32.6355 32.5041 32.0317C32.6496 31.4207 32.7224 30.777 32.7224 30.1005V30.0023ZM29.1545 30.0023H33.2679V30.7443H29.1545V30.0023ZM32.6678 32.4464V33.1447L28.8163 33.5047L28.6526 32.7191L32.6678 32.4464ZM35.832 28.9767H36.7267V38.851H35.832V28.9767ZM33.5625 32.9374H36.2684V33.6902H33.5625V32.9374ZM45.8473 28.9767H46.7529V38.851H45.8473V28.9767ZM38.8971 30.0351H44.4834V30.777H38.8971V30.0351ZM38.7443 36.407L38.6461 35.6432C39.2571 35.6432 39.9191 35.6396 40.6319 35.6323C41.352 35.6178 42.083 35.5923 42.825 35.556C43.5669 35.5123 44.287 35.4469 44.9853 35.3596L45.0399 36.036C44.3343 36.1451 43.6106 36.2288 42.8686 36.287C42.134 36.3379 41.4138 36.3706 40.7083 36.3852C40.0027 36.3997 39.348 36.407 38.7443 36.407ZM39.9882 30.5915H40.8719V35.8396H39.9882V30.5915ZM42.5086 30.5915H43.3923V35.8396H42.5086V30.5915ZM51.7629 36.8216H60.7098V37.5854H51.7629V36.8216ZM52.5485 29.9696H59.8697V30.7115H52.5485V29.9696ZM52.5703 34.1266H59.8478V34.8686H52.5703V34.1266ZM54.076 30.6461H54.9816V34.2139H54.076V30.6461ZM57.4365 30.6461H58.3312V34.2139H57.4365V30.6461ZM61.8 36.8762H70.747V37.629H61.8V36.8762ZM65.8043 34.7704H66.699V37.1926H65.8043V34.7704ZM62.8911 29.7077H69.634V32.6973H63.8076V34.6722H62.9129V31.9772H68.7394V30.4497H62.8911V29.7077ZM62.9129 34.2903H69.8632V35.0322H62.9129V34.2903ZM75.9069 31.5189H77.7072V32.2609H75.9069V31.5189ZM77.3799 29.1949H78.2419V34.9231H77.3799V29.1949ZM73.8775 30.2751H74.5976V31.0825C74.5976 31.5917 74.5104 32.0899 74.3358 32.5773C74.1685 33.0646 73.9139 33.5011 73.572 33.8866C73.2374 34.2648 72.8301 34.5631 72.35 34.7813L71.8699 34.0721C72.2991 33.8902 72.6628 33.6393 72.961 33.3192C73.2592 32.9992 73.4847 32.6464 73.6375 32.2609C73.7975 31.8681 73.8775 31.4753 73.8775 31.0825V30.2751ZM74.0412 30.2751H74.7504V31.0825C74.7504 31.4389 74.8268 31.799 74.9795 32.1627C75.1323 32.5191 75.3505 32.8464 75.6342 33.1447C75.9251 33.4356 76.2743 33.6684 76.6816 33.843L76.2125 34.5413C75.7396 34.3449 75.3396 34.0648 75.0123 33.7011C74.6922 33.3374 74.4485 32.9301 74.2812 32.4791C74.1212 32.0208 74.0412 31.5553 74.0412 31.0825V30.2751ZM72.0663 29.7841H76.4525V30.526H72.0663V29.7841ZM79.2893 28.9767H80.1513V35.0104H79.2893V28.9767ZM73.5393 35.4469H80.1513V38.851H79.2566V36.1888H73.5393V35.4469ZM83.02 34.3012H89.7956V35.0322H83.02V34.3012ZM81.8743 36.8216H90.8213V37.5745H81.8743V36.8216ZM83.02 29.8277H89.6975V30.5697H83.9365V34.5194H83.02V29.8277ZM83.6528 32.0208H89.4792V32.7519H83.6528V32.0208Z" fill="black"/>
</svg>
