<svg width="30" height="31" viewBox="0 0 30 31" fill="none" xmlns="http://www.w3.org/2000/svg">
<path d="M15.0059 8.76172C11.2793 8.76172 8.27344 11.7676 8.27344 15.4941C8.27344 19.2207 11.2793 22.2266 15.0059 22.2266C18.7324 22.2266 21.7383 19.2207 21.7383 15.4941C21.7383 11.7676 18.7324 8.76172 15.0059 8.76172ZM15.0059 19.8711C12.5977 19.8711 10.6289 17.9082 10.6289 15.4941C10.6289 13.0801 12.5918 11.1172 15.0059 11.1172C17.4199 11.1172 19.3828 13.0801 19.3828 15.4941C19.3828 17.9082 17.4141 19.8711 15.0059 19.8711ZM23.584 8.48633C23.584 9.35937 22.8809 10.0566 22.0137 10.0566C21.1406 10.0566 20.4434 9.35352 20.4434 8.48633C20.4434 7.61914 21.1465 6.91602 22.0137 6.91602C22.8809 6.91602 23.584 7.61914 23.584 8.48633ZM28.043 10.0801C27.9434 7.97656 27.4629 6.11328 25.9219 4.57812C24.3867 3.04297 22.5234 2.5625 20.4199 2.45703C18.252 2.33398 11.7539 2.33398 9.58594 2.45703C7.48828 2.55664 5.625 3.03711 4.08398 4.57227C2.54297 6.10742 2.06836 7.9707 1.96289 10.0742C1.83984 12.2422 1.83984 18.7402 1.96289 20.9082C2.0625 23.0117 2.54297 24.875 4.08398 26.4102C5.625 27.9453 7.48242 28.4258 9.58594 28.5312C11.7539 28.6543 18.252 28.6543 20.4199 28.5312C22.5234 28.4316 24.3867 27.9512 25.9219 26.4102C27.457 24.875 27.9375 23.0117 28.043 20.9082C28.166 18.7402 28.166 12.248 28.043 10.0801ZM25.2422 23.2344C24.7852 24.3828 23.9004 25.2676 22.7461 25.7305C21.0176 26.416 16.916 26.2578 15.0059 26.2578C13.0957 26.2578 8.98828 26.4102 7.26562 25.7305C6.11719 25.2734 5.23242 24.3887 4.76953 23.2344C4.08398 21.5059 4.24219 17.4043 4.24219 15.4941C4.24219 13.584 4.08984 9.47656 4.76953 7.75391C5.22656 6.60547 6.11133 5.7207 7.26562 5.25781C8.99414 4.57227 13.0957 4.73047 15.0059 4.73047C16.916 4.73047 21.0234 4.57812 22.7461 5.25781C23.8945 5.71484 24.7793 6.59961 25.2422 7.75391C25.9277 9.48242 25.7695 13.584 25.7695 15.4941C25.7695 17.4043 25.9277 21.5117 25.2422 23.2344Z" fill="#555555"/>
</svg>
