<svg width="30" height="31" viewBox="0 0 30 31" fill="none" xmlns="http://www.w3.org/2000/svg">
<path d="M26.9162 9.38969C26.9353 9.65617 26.9353 9.92271 26.9353 10.1892C26.9353 18.3173 20.7487 27.6828 9.44162 27.6828C5.9581 27.6828 2.72209 26.6739 0 24.9227C0.494941 24.9798 0.970781 24.9988 1.48477 24.9988C4.35908 24.9988 7.00506 24.028 9.11801 22.372C6.41496 22.3148 4.14973 20.5445 3.36926 18.108C3.75 18.165 4.13068 18.2031 4.53047 18.2031C5.08248 18.2031 5.63455 18.127 6.14848 17.9938C3.33123 17.4227 1.21822 14.9481 1.21822 11.9595V11.8834C2.03672 12.3402 2.98857 12.6258 3.99738 12.6638C2.34129 11.5597 1.25631 9.67522 1.25631 7.54322C1.25631 6.40111 1.56082 5.35416 2.09385 4.44045C5.12051 8.17141 9.67002 10.6079 14.7715 10.8745C14.6763 10.4176 14.6192 9.94176 14.6192 9.46586C14.6192 6.0775 17.3603 3.31738 20.7677 3.31738C22.538 3.31738 24.1369 4.05977 25.2601 5.259C26.6496 4.99252 27.9821 4.47854 29.1623 3.77424C28.7054 5.20193 27.7346 6.40117 26.4593 7.16254C27.6966 7.02936 28.8959 6.68664 29.9999 6.2108C29.1625 7.42902 28.1154 8.514 26.9162 9.38969Z" fill="#555555"/>
</svg>
