<svg width="183" height="184" viewBox="0 0 183 184" fill="none" xmlns="http://www.w3.org/2000/svg">
<path d="M94.4996 17.6858L97.0083 3.80159L105.333 5.30587L105.064 6.79734L98.4201 5.59686L97.5724 10.2882L103.593 11.376L103.323 12.8675L97.3029 11.7797L96.1809 17.9896L94.4996 17.6858Z" fill="black"/>
<path d="M119.909 23.4253L124.909 14.0991L126.342 14.8673L121.342 24.1935L119.909 23.4253ZM126.471 12.9354C126.192 12.7856 126.002 12.5614 125.902 12.2627C125.805 11.9661 125.829 11.6842 125.972 11.417C126.115 11.1499 126.337 10.9744 126.637 10.8904C126.942 10.8087 127.233 10.8427 127.513 10.9924C127.792 11.1421 127.98 11.3653 128.076 11.6619C128.177 11.9606 128.155 12.2436 128.012 12.5107C127.869 12.7779 127.645 12.9523 127.341 13.0341C127.04 13.118 126.75 13.0851 126.471 12.9354Z" fill="black"/>
<path d="M137.14 38.7416C136.596 38.1753 136.201 37.6185 135.955 37.0711C135.706 36.5269 135.569 36.0061 135.543 35.5086C135.517 35.0176 135.561 34.5653 135.673 34.1518L137.226 34.4557C137.189 34.6953 137.158 34.9822 137.136 35.3163C137.109 35.6536 137.165 36.0266 137.303 36.4354C137.441 36.8507 137.731 37.2885 138.173 37.7488C138.765 38.3648 139.403 38.73 140.086 38.8443C140.769 38.9587 141.429 38.7104 142.064 38.0994L143.614 36.6102L143.519 36.5108C143.297 36.5584 143.007 36.6013 142.649 36.6396C142.297 36.6781 141.901 36.6263 141.458 36.4843C141.023 36.3424 140.566 36.0231 140.089 35.5263C139.497 34.9103 139.111 34.2172 138.932 33.4471C138.755 32.6802 138.809 31.8871 139.091 31.0676C139.377 30.2516 139.918 29.4617 140.713 28.6979C141.494 27.947 142.307 27.4305 143.15 27.1485C143.997 26.8633 144.815 26.8131 145.604 26.9978C146.396 27.1792 147.101 27.5912 147.719 28.2337C148.196 28.7305 148.492 29.2041 148.606 29.6547C148.727 30.1054 148.758 30.5088 148.699 30.8649C148.646 31.2211 148.595 31.506 148.545 31.7194L148.66 31.8386L149.872 30.6739L150.96 31.8066L143.111 39.3482C142.456 39.9782 141.779 40.3415 141.082 40.438C140.385 40.541 139.7 40.4348 139.028 40.1192C138.355 39.8102 137.726 39.351 137.14 38.7416ZM141.295 34.6734C141.747 35.1436 142.236 35.4376 142.763 35.5554C143.29 35.6731 143.837 35.6223 144.403 35.403C144.97 35.1837 145.534 34.8035 146.097 34.2626C146.647 33.7343 147.053 33.1854 147.314 32.6157C147.576 32.0459 147.67 31.4842 147.596 30.9306C147.523 30.3769 147.257 29.8616 146.799 29.3847C146.322 28.8879 145.798 28.5949 145.228 28.5055C144.661 28.4195 144.087 28.4974 143.504 28.7391C142.924 28.9841 142.375 29.3548 141.859 29.8512C141.329 30.3604 140.94 30.8934 140.692 31.4504C140.45 32.0075 140.371 32.5614 140.454 33.112C140.544 33.6628 140.824 34.1832 141.295 34.6734Z" fill="black"/>
<path d="M155.813 52.6211L165.7 48.8486L166.26 50.3161L164.715 50.9055L164.764 51.0343C165.37 51.0388 165.907 51.215 166.374 51.5628C166.845 51.909 167.204 52.4039 167.449 53.0475C167.698 53.6998 167.757 54.2991 167.627 54.8454C167.502 55.3945 167.222 55.892 166.788 56.338L166.827 56.4409C167.434 56.4993 167.985 56.7243 168.478 57.116C168.976 57.5061 169.36 58.0551 169.63 58.7632C169.968 59.6471 169.967 60.4758 169.628 61.2491C169.293 62.0208 168.544 62.6285 167.381 63.0723L160.765 65.5971L160.185 64.0781L166.802 61.5533C167.531 61.2749 167.976 60.8764 168.137 60.3578C168.298 59.8392 168.276 59.3096 168.069 58.7689C167.804 58.0738 167.388 57.6155 166.822 57.3941C166.26 57.171 165.659 57.1814 165.02 57.4254L158.584 59.8815L157.994 58.3367L164.765 55.7529C165.327 55.5384 165.711 55.1833 165.915 54.6876C166.123 54.1902 166.118 53.654 165.898 53.0791C165.748 52.6843 165.502 52.3554 165.16 52.0923C164.821 51.8336 164.424 51.6703 163.971 51.6025C163.523 51.5373 163.057 51.5973 162.572 51.7823L156.393 54.1401L155.813 52.6211Z" fill="black"/>
<path d="M165.563 86.2754C165.583 85.6051 165.728 85.0007 165.997 84.462C166.27 83.9234 166.653 83.5007 167.144 83.1939C167.641 82.8872 168.233 82.7443 168.922 82.765C169.528 82.7833 170.015 82.9174 170.385 83.1675C170.758 83.4177 171.047 83.7457 171.251 84.1516C171.455 84.5575 171.602 85.0031 171.693 85.4883C171.789 85.9782 171.861 86.4698 171.911 86.9629C171.974 87.6081 172.02 88.131 172.049 88.5316C172.083 88.937 172.15 89.2331 172.25 89.4199C172.35 89.6113 172.531 89.7109 172.793 89.7188L172.848 89.7205C173.527 89.741 174.061 89.5709 174.448 89.2104C174.836 88.8545 175.041 88.3024 175.063 87.5541C175.087 86.7783 174.935 86.1649 174.609 85.714C174.282 85.263 173.929 84.9422 173.549 84.7516L174.146 83.2257C174.781 83.5205 175.27 83.9028 175.614 84.3727C175.963 84.8473 176.2 85.3599 176.326 85.9105C176.456 86.4658 176.513 87.0097 176.497 87.5422C176.487 87.8819 176.434 88.2709 176.338 88.7091C176.247 89.1521 176.071 89.5764 175.81 89.9821C175.55 90.3924 175.165 90.7277 174.657 90.988C174.148 91.2484 173.474 91.3659 172.633 91.3406L165.665 91.1307L165.714 89.5055L167.146 89.5487L167.148 89.4661C166.922 89.349 166.682 89.1579 166.428 88.893C166.174 88.628 165.962 88.2793 165.791 87.8468C165.62 87.4144 165.544 86.8905 165.563 86.2754ZM167.015 86.5673C166.996 87.21 167.106 87.7555 167.345 88.2038C167.584 88.6567 167.9 89.0016 168.293 89.2386C168.685 89.4802 169.102 89.6076 169.542 89.6209L171.03 89.6657C170.949 89.5944 170.878 89.4406 170.816 89.2044C170.759 88.9729 170.709 88.7049 170.668 88.4004C170.631 88.1006 170.599 87.8079 170.57 87.5222C170.547 87.2411 170.526 87.0131 170.508 86.8379C170.466 86.4139 170.388 86.0164 170.276 85.6454C170.167 85.2792 169.995 84.9799 169.758 84.7476C169.526 84.5201 169.203 84.4001 168.79 84.3876C168.226 84.3706 167.792 84.5666 167.491 84.9757C167.193 85.3894 167.035 85.92 167.015 86.5673Z" fill="black"/>
<path d="M154.275 131.24C154.882 130.455 155.589 129.923 156.398 129.642C157.207 129.362 158.055 129.321 158.941 129.518C159.827 129.716 160.689 130.137 161.524 130.783C162.375 131.441 163.004 132.177 163.413 132.992C163.823 133.814 163.994 134.648 163.925 135.495C163.858 136.349 163.532 137.153 162.948 137.909C162.493 138.498 161.974 138.944 161.39 139.248C160.807 139.552 160.203 139.703 159.577 139.701C158.952 139.699 158.349 139.533 157.77 139.201L158.764 137.914C159.221 138.111 159.728 138.154 160.284 138.044C160.84 137.94 161.337 137.604 161.775 137.038C162.163 136.536 162.372 135.995 162.402 135.415C162.434 134.841 162.295 134.267 161.985 133.691C161.676 133.121 161.206 132.592 160.574 132.103C159.927 131.604 159.285 131.27 158.648 131.103C158.008 130.939 157.411 130.942 156.857 131.111C156.299 131.284 155.824 131.625 155.431 132.134C155.172 132.468 154.996 132.816 154.901 133.179C154.807 133.541 154.796 133.901 154.868 134.258C154.94 134.616 155.098 134.953 155.341 135.269L154.347 136.555C153.909 136.1 153.603 135.576 153.428 134.983C153.255 134.396 153.233 133.779 153.363 133.13C153.494 132.488 153.798 131.858 154.275 131.24Z" fill="black"/>
<path d="M137.2 155.426L140.513 160.732L139.134 161.593L133.53 152.616L134.91 151.755L135.858 153.275L135.952 153.217C135.877 152.629 135.963 152.037 136.207 151.441C136.455 150.848 136.917 150.34 137.595 149.917C138.156 149.567 138.731 149.378 139.321 149.351C139.913 149.328 140.489 149.488 141.05 149.831C141.613 150.178 142.133 150.733 142.61 151.497L146.17 157.201L144.791 158.062L141.289 152.451C140.88 151.797 140.371 151.389 139.762 151.228C139.148 151.07 138.555 151.169 137.983 151.526C137.64 151.74 137.346 152.046 137.101 152.442C136.852 152.842 136.719 153.298 136.704 153.811C136.685 154.326 136.85 154.865 137.2 155.426Z" fill="black"/>
<path d="M117.677 161.365L120.03 171.682L118.498 172.031L118.143 170.473L118.036 170.498C117.964 171.051 117.718 171.543 117.298 171.973C116.878 172.403 116.359 172.689 115.741 172.83C115.625 172.856 115.479 172.887 115.303 172.923C115.127 172.958 114.994 172.981 114.902 172.993L114.534 171.381C114.591 171.382 114.719 171.374 114.918 171.357C115.113 171.345 115.316 171.316 115.526 171.268C116.028 171.153 116.451 170.946 116.798 170.646C117.14 170.351 117.384 169.994 117.528 169.575C117.67 169.161 117.687 168.721 117.581 168.255L116.092 161.727L117.677 161.365Z" fill="black"/>
<path d="M85.8224 175.642L90.7758 165.505L92.4209 165.671L95.2542 176.591L93.4994 176.415L91.4379 167.732L91.3282 167.721L87.5771 175.818L85.8224 175.642Z" fill="black"/>
<path d="M66.2699 160.654C67.1866 161.1 67.8789 161.687 68.3467 162.416C68.8084 163.146 69.041 163.964 69.0444 164.87C69.0417 165.778 68.8032 166.719 68.3287 167.694C67.8543 168.668 67.2586 169.441 66.5416 170.011C65.8185 170.584 65.0353 170.923 64.1922 171.028C63.343 171.136 62.4889 170.981 61.63 170.563C61.1344 170.321 60.6853 170 60.2826 169.6C59.8798 169.2 59.5707 168.717 59.3552 168.153C59.1377 167.592 59.059 166.951 59.1191 166.229C59.1793 165.508 59.4255 164.703 59.8577 163.815L60.1592 163.196L67.4931 166.766L66.878 168.03L61.0307 165.183C60.7693 165.72 60.6435 166.251 60.6532 166.777C60.6587 167.301 60.7984 167.78 61.072 168.214C61.3416 168.647 61.7407 168.992 62.2692 169.249C62.8515 169.533 63.4257 169.634 63.9917 169.552C64.5516 169.472 65.0567 169.258 65.507 168.91C65.9572 168.562 66.31 168.126 66.5653 167.602L66.9754 166.759C67.3252 166.041 67.4979 165.371 67.4934 164.751C67.4827 164.133 67.3177 163.585 66.9984 163.108C66.677 162.635 66.2211 162.254 65.6306 161.967C65.2465 161.78 64.8735 161.665 64.5116 161.621C64.1434 161.58 63.7925 161.614 63.4589 161.722C63.1232 161.834 62.813 162.026 62.5283 162.296L61.309 161.212C61.6909 160.805 62.1458 160.505 62.6737 160.313C63.1996 160.125 63.7699 160.055 64.3846 160.104C64.9972 160.157 65.6257 160.34 66.2699 160.654Z" fill="black"/>
<path d="M21.4765 137.341L22.669 136.65L25.4159 141.397L24.2234 142.087L21.4765 137.341ZM21.2286 141.973L20.4142 140.566L29.1434 135.514C29.5409 135.284 29.8057 135.054 29.9377 134.824C30.0635 134.592 30.1072 134.365 30.069 134.143C30.0245 133.919 29.9424 133.704 29.8227 133.497C29.733 133.342 29.6515 133.22 29.578 133.129C29.5007 133.042 29.4387 132.971 29.3923 132.918L30.4907 131.901C30.5817 131.975 30.6946 132.088 30.8293 132.238C30.9679 132.386 31.1132 132.591 31.265 132.853C31.4951 133.251 31.6351 133.69 31.685 134.171C31.7327 134.647 31.654 135.112 31.4492 135.565C31.242 136.014 30.8721 136.392 30.3394 136.7L21.2286 141.973Z" fill="black"/>
<path d="M21.8858 113.215C22.0933 114.213 22.0519 115.12 21.7616 115.935C21.466 116.747 20.9608 117.432 20.2462 117.988C19.5261 118.541 18.6355 118.928 17.5742 119.149C16.513 119.369 15.5375 119.37 14.6477 119.152C13.7525 118.929 13.0054 118.517 12.4064 117.914C11.802 117.308 11.4026 116.538 11.2082 115.602C11.0961 115.063 11.0753 114.511 11.1458 113.948C11.2164 113.384 11.4091 112.844 11.7241 112.329C12.0347 111.814 12.4938 111.36 13.1015 110.966C13.7093 110.572 14.4966 110.275 15.4634 110.074L16.1379 109.934L17.7974 117.92L16.4214 118.206L15.0983 111.839C14.5137 111.96 14.0164 112.185 13.6063 112.515C13.1953 112.839 12.9015 113.243 12.725 113.725C12.5475 114.203 12.5186 114.729 12.6382 115.305C12.7699 115.939 13.0413 116.455 13.4523 116.853C13.8579 117.247 14.336 117.516 14.8865 117.659C15.4371 117.803 15.9979 117.816 16.5689 117.697L17.4863 117.506C18.2687 117.344 18.904 117.071 19.392 116.688C19.8746 116.302 20.2071 115.836 20.3895 115.292C20.5673 114.748 20.5895 114.155 20.4559 113.512C20.3689 113.093 20.232 112.728 20.045 112.415C19.8526 112.098 19.6115 111.841 19.3218 111.643C19.0276 111.447 18.6866 111.318 18.2988 111.258L18.4109 109.63C18.9662 109.684 19.4814 109.861 19.9565 110.161C20.4271 110.462 20.831 110.87 21.1682 111.386C21.5008 111.904 21.74 112.513 21.8858 113.215Z" fill="black"/>
<path d="M7.69809 89.3082L12.346 87.426L8.43217 84.2911L8.70347 82.437L13.4439 86.5841L19.1738 83.969L18.9025 85.8232L14.4728 87.7372L18.1684 90.8402L17.8971 92.6943L13.1487 88.6018L7.42679 91.1623L7.69809 89.3082Z" fill="black"/>
<path d="M15.3228 57.795L16.5534 58.4147L14.087 63.3125L12.8564 62.6928L15.3228 57.795ZM11.3109 60.125L12.0422 58.6729L21.0502 63.2092C21.4604 63.4157 21.798 63.5112 22.0631 63.4955C22.326 63.4737 22.5399 63.386 22.7046 63.2324C22.8674 63.0726 23.0024 62.8861 23.1098 62.6728C23.1904 62.5128 23.2483 62.3774 23.2835 62.2666C23.3147 62.1537 23.3396 62.0634 23.3583 61.9957L24.8114 62.3573C24.7988 62.4743 24.7665 62.6303 24.7146 62.8253C24.6668 63.0223 24.5747 63.2562 24.4384 63.527C24.2318 63.9372 23.9412 64.2947 23.5665 64.5997C23.1939 64.9006 22.762 65.0893 22.2709 65.166C21.7818 65.2385 21.2625 65.1364 20.7128 64.8596L11.3109 60.125Z" fill="black"/>
<path d="M23.8295 36.9156L31.1737 43.9098L30.0873 45.082L22.5557 38.29L23.8295 36.9156ZM33.6219 47.2681C33.3908 47.5174 33.1033 47.6486 32.7593 47.6617C32.4153 47.6748 32.1187 47.5658 31.8694 47.3348C31.6201 47.1037 31.489 46.8162 31.4759 46.4722C31.4628 46.1282 31.5718 45.8316 31.8028 45.5823C32.0338 45.333 32.3213 45.2019 32.6653 45.1888C33.0093 45.1757 33.306 45.2847 33.5552 45.5157C33.7203 45.6687 33.8329 45.8513 33.8929 46.0635C33.9561 46.2723 33.9658 46.4848 33.9221 46.701C33.878 46.9107 33.778 47.0997 33.6219 47.2681Z" fill="black"/>
</svg>
