<svg width="301" height="301" viewBox="0 0 301 301" fill="none" xmlns="http://www.w3.org/2000/svg">
<path d="M154.737 29.7129L158.619 11.5782L169.491 13.9121L169.074 15.8602L160.398 13.9976L159.086 20.1251L166.948 21.8129L166.531 23.7609L158.669 22.0732L156.933 30.1843L154.737 29.7129Z" fill="black"/>
<path d="M202.703 42.7561L210.252 31.0738L212.045 32.2361L204.496 43.9184L202.703 42.7561ZM212.422 29.7178C212.072 29.4912 211.848 29.1767 211.749 28.7742C211.654 28.375 211.715 28.0081 211.932 27.6735C212.148 27.3388 212.457 27.1328 212.859 27.0554C213.267 26.9812 213.645 27.0574 213.995 27.284C214.344 27.5105 214.566 27.8234 214.66 28.2226C214.76 28.6251 214.701 28.9937 214.485 29.3283C214.269 29.6629 213.957 29.8673 213.55 29.9415C213.147 30.0189 212.772 29.9443 212.422 29.7178Z" fill="black"/>
<path d="M232.32 70.6726C231.71 69.8397 231.293 69.0451 231.068 68.2888C230.839 67.5361 230.751 66.8331 230.804 66.18C230.855 65.5353 230.99 64.9532 231.208 64.4335L233.177 65.0993C233.087 65.4053 232.998 65.7741 232.91 66.2057C232.817 66.6409 232.825 67.137 232.934 67.6939C233.041 68.2593 233.343 68.8805 233.838 69.5575C234.502 70.4634 235.268 71.0502 236.138 71.3179C237.007 71.5856 237.909 71.3763 238.843 70.6901L241.12 69.0175L241.013 68.8714C240.716 68.8949 240.331 68.9005 239.858 68.8883C239.394 68.8774 238.886 68.741 238.335 68.4791C237.793 68.2185 237.254 67.7229 236.719 66.9923C236.055 66.0864 235.674 65.1158 235.574 64.0804C235.478 63.05 235.685 62.0251 236.196 61.0058C236.71 59.9914 237.551 59.0554 238.718 58.1976C239.867 57.3542 241.014 56.8219 242.162 56.6007C243.314 56.376 244.388 56.4524 245.383 56.8302C246.383 57.2043 247.229 57.8639 247.921 58.8087C248.456 59.5393 248.759 60.2082 248.829 60.8155C248.908 61.4241 248.878 61.9554 248.74 62.4095C248.609 62.8649 248.493 63.2273 248.391 63.4969L248.519 63.6723L250.3 62.3642L251.52 64.0299L239.989 72.5C239.026 73.2077 238.082 73.5639 237.158 73.5687C236.232 73.582 235.359 73.3245 234.538 72.7964C233.716 72.2767 232.977 71.5687 232.32 70.6726ZM238.437 66.0896C238.944 66.7812 239.53 67.2495 240.196 67.4945C240.861 67.7395 241.582 67.7682 242.358 67.5806C243.133 67.3929 243.934 66.9954 244.761 66.3878C245.569 65.7945 246.193 65.1492 246.632 64.4518C247.072 63.7544 247.292 63.0384 247.293 62.3037C247.293 61.5691 247.037 60.8511 246.523 60.1498C245.988 59.4192 245.358 58.9462 244.631 58.7308C243.908 58.5202 243.146 58.5219 242.345 58.7358C241.548 58.9546 240.769 59.3428 240.01 59.9003C239.232 60.4722 238.633 61.0996 238.212 61.7827C237.801 62.4671 237.601 63.1755 237.614 63.9079C237.635 64.6415 237.909 65.3688 238.437 66.0896Z" fill="black"/>
<path d="M263.792 106.199L277.541 104.09L277.853 106.131L275.705 106.46L275.732 106.639C276.51 106.813 277.15 107.188 277.654 107.764C278.163 108.34 278.486 109.075 278.623 109.97C278.762 110.877 278.672 111.664 278.352 112.33C278.039 113 277.542 113.562 276.86 114.015L276.882 114.158C277.646 114.401 278.291 114.843 278.816 115.483C279.347 116.122 279.688 116.934 279.839 117.919C280.027 119.148 279.796 120.213 279.146 121.113C278.501 122.012 277.371 122.585 275.754 122.833L266.552 124.245L266.229 122.132L275.431 120.721C276.445 120.565 277.128 120.176 277.478 119.554C277.829 118.933 277.947 118.246 277.832 117.494C277.684 116.527 277.277 115.823 276.611 115.382C275.951 114.939 275.176 114.786 274.287 114.923L265.337 116.296L265.008 114.147L274.424 112.703C275.206 112.583 275.797 112.233 276.196 111.652C276.602 111.071 276.744 110.381 276.622 109.581C276.538 109.032 276.313 108.541 275.948 108.109C275.583 107.682 275.119 107.362 274.555 107.15C273.998 106.942 273.382 106.89 272.708 106.993L264.115 108.311L263.792 106.199Z" fill="black"/>
<path d="M268.107 172.441C268.382 171.603 268.79 170.896 269.33 170.317C269.875 169.74 270.515 169.351 271.249 169.148C271.988 168.946 272.788 168.988 273.648 169.271C274.405 169.521 274.969 169.872 275.342 170.325C275.719 170.78 275.961 171.302 276.067 171.89C276.172 172.477 276.192 173.094 276.126 173.74C276.063 174.393 275.972 175.04 275.85 175.68C275.69 176.517 275.553 177.193 275.441 177.709C275.332 178.233 275.306 178.631 275.362 178.904C275.417 179.183 275.608 179.376 275.935 179.483L276.003 179.506C276.852 179.786 277.588 179.771 278.21 179.461C278.831 179.158 279.295 178.538 279.603 177.603C279.921 176.634 279.959 175.804 279.716 175.114C279.472 174.423 279.147 173.887 278.738 173.505L280.06 171.804C280.749 172.413 281.224 173.078 281.482 173.799C281.745 174.527 281.853 175.262 281.806 176.003C281.763 176.752 281.633 177.459 281.414 178.124C281.275 178.549 281.063 179.019 280.779 179.536C280.498 180.06 280.119 180.529 279.639 180.943C279.158 181.363 278.549 181.642 277.811 181.78C277.072 181.918 276.179 181.814 275.13 181.468L266.426 178.599L267.094 176.569L268.882 177.159L268.916 177.055C268.675 176.823 268.444 176.493 268.222 176.064C268.001 175.635 267.863 175.116 267.809 174.507C267.755 173.898 267.855 173.209 268.107 172.441ZM269.829 173.352C269.565 174.154 269.5 174.883 269.634 175.538C269.767 176.198 270.036 176.751 270.443 177.196C270.847 177.647 271.325 177.964 271.875 178.145L273.733 178.758C273.658 178.638 273.626 178.417 273.636 178.096C273.65 177.783 273.687 177.427 273.749 177.028C273.814 176.636 273.882 176.255 273.953 175.884C274.028 175.521 274.087 175.226 274.13 174.998C274.234 174.448 274.285 173.918 274.281 173.408C274.28 172.906 274.175 172.464 273.963 172.083C273.756 171.709 273.394 171.438 272.878 171.267C272.172 171.035 271.553 171.12 271.021 171.523C270.492 171.933 270.095 172.543 269.829 173.352Z" fill="black"/>
<path d="M222.74 246.336C223.867 245.68 224.992 245.382 226.115 245.441C227.238 245.5 228.289 245.869 229.27 246.549C230.25 247.229 231.089 248.169 231.786 249.37C232.495 250.592 232.896 251.801 232.989 252.997C233.081 254.201 232.875 255.302 232.372 256.3C231.867 257.306 231.072 258.125 229.986 258.756C229.141 259.248 228.288 259.535 227.428 259.616C226.568 259.697 225.758 259.582 224.998 259.27C224.237 258.958 223.587 258.457 223.046 257.765L224.894 256.691C225.353 257.157 225.947 257.46 226.678 257.601C227.406 257.75 228.178 257.588 228.992 257.114C229.712 256.695 230.234 256.14 230.559 255.448C230.881 254.765 230.997 253.995 230.906 253.14C230.812 252.294 230.502 251.416 229.975 250.507C229.436 249.578 228.82 248.854 228.128 248.334C227.431 247.818 226.703 247.526 225.944 247.457C225.181 247.392 224.433 247.571 223.703 247.996C223.223 248.276 222.836 248.613 222.541 249.008C222.247 249.402 222.055 249.835 221.965 250.307C221.876 250.778 221.901 251.266 222.04 251.772L220.193 252.846C219.885 252.075 219.773 251.285 219.855 250.476C219.935 249.676 220.214 248.912 220.693 248.186C221.17 247.469 221.853 246.852 222.74 246.336Z" fill="black"/>
<path d="M175.447 274.001L176.301 282.179L174.175 282.402L172.731 268.568L174.856 268.345L175.101 270.687L175.245 270.672C175.496 269.935 175.938 269.285 176.571 268.721C177.204 268.163 178.044 267.829 179.088 267.72C179.953 267.629 180.741 267.738 181.453 268.046C182.166 268.36 182.754 268.881 183.219 269.609C183.684 270.343 183.978 271.299 184.101 272.476L185.019 281.266L182.893 281.489L181.99 272.843C181.885 271.834 181.519 271.059 180.892 270.517C180.259 269.977 179.501 269.753 178.618 269.845C178.09 269.9 177.567 270.092 177.048 270.419C176.524 270.747 176.105 271.21 175.791 271.807C175.471 272.405 175.357 273.137 175.447 274.001Z" fill="black"/>
<path d="M133.071 270.349L129.177 283.702L127.195 283.122L127.783 281.105L127.644 281.064C127.208 281.654 126.612 282.061 125.854 282.286C125.097 282.511 124.318 282.507 123.519 282.273C123.368 282.229 123.181 282.171 122.956 282.099C122.732 282.027 122.564 281.968 122.451 281.923L123.06 279.837C123.124 279.874 123.276 279.947 123.515 280.055C123.746 280.166 123.998 280.262 124.271 280.342C124.92 280.532 125.539 280.565 126.128 280.442C126.71 280.322 127.218 280.068 127.652 279.68C128.079 279.295 128.38 278.801 128.556 278.199L131.02 269.749L133.071 270.349Z" fill="black"/>
<path d="M74.9156 261.319L87.5318 253.538L89.2417 254.879L84.719 269.01L82.8951 267.579L86.7031 256.479L86.5891 256.389L76.7395 262.75L74.9156 261.319Z" fill="black"/>
<path d="M52.435 220.639C53.0699 221.82 53.3572 222.978 53.297 224.115C53.2286 225.249 52.8486 226.302 52.157 227.272C51.4572 228.239 50.4804 229.061 49.2265 229.737C47.9726 230.414 46.7445 230.782 45.5423 230.84C44.3318 230.897 43.2366 230.657 42.2567 230.123C41.2687 229.586 40.4772 228.764 39.8824 227.659C39.5392 227.021 39.3066 226.333 39.1845 225.596C39.0624 224.86 39.1032 224.107 39.3068 223.339C39.5052 222.573 39.9133 221.828 40.5313 221.104C41.1493 220.38 42.0295 219.709 43.1718 219.093L43.9687 218.663L49.0477 228.105L47.422 228.982L43.3725 221.454C42.6818 221.827 42.1398 222.297 41.7466 222.866C41.3505 223.43 41.1316 224.049 41.0898 224.723C41.0452 225.392 41.2059 226.066 41.5719 226.747C41.9752 227.497 42.51 228.045 43.1765 228.392C43.8348 228.736 44.5375 228.896 45.2845 228.87C46.0315 228.844 46.7424 228.649 47.4172 228.285L48.501 227.701C49.4255 227.202 50.1234 226.62 50.5947 225.954C51.0578 225.285 51.3023 224.574 51.3281 223.819C51.3487 223.067 51.1545 222.311 50.7455 221.551C50.4795 221.056 50.1703 220.647 49.8176 220.323C49.4568 219.996 49.057 219.763 48.6181 219.622C48.1739 219.484 47.6964 219.451 47.1856 219.52L46.7176 217.427C47.4368 217.286 48.1518 217.315 48.8624 217.515C49.5677 217.717 50.2293 218.081 50.8471 218.605C51.4596 219.132 51.9889 219.81 52.435 220.639Z" fill="black"/>
<path d="M17.4901 134.817L19.2676 135.164L17.8909 142.24L16.1133 141.893L17.4901 134.817ZM13.2439 139.192L13.6521 137.095L26.6637 139.634C27.2562 139.75 27.7173 139.75 28.047 139.636C28.372 139.515 28.6113 139.328 28.7651 139.075C28.9141 138.815 29.0185 138.531 29.0785 138.223C29.1235 137.992 29.1485 137.8 29.1536 137.647C29.1528 137.493 29.1522 137.37 29.1517 137.278L31.1189 137.219C31.1446 137.372 31.1593 137.581 31.163 137.846C31.1727 138.112 31.1395 138.441 31.0634 138.832C30.9481 139.425 30.7077 139.98 30.3422 140.5C29.9779 141.013 29.4987 141.405 28.9046 141.677C28.3117 141.942 27.6183 141.998 26.8243 141.843L13.2439 139.192Z" fill="black"/>
<path d="M41.5631 99.7293C40.8475 100.862 39.9803 101.682 38.9615 102.187C37.9408 102.684 36.8389 102.868 35.6558 102.74C34.4708 102.604 33.2765 102.155 32.0729 101.393C30.8694 100.63 29.9472 99.739 29.3065 98.7185C28.6639 97.6897 28.3348 96.6166 28.3194 95.4992C28.3021 94.3734 28.6287 93.2797 29.2992 92.218C29.686 91.6055 30.17 91.0653 30.7512 90.5973C31.3324 90.1294 32.0072 89.7957 32.7756 89.5965C33.539 89.394 34.3874 89.3847 35.3208 89.5687C36.2542 89.7526 37.2691 90.1918 38.3656 90.8864L39.1306 91.371L33.4055 100.436L31.8449 99.4475L36.4095 92.22C35.7466 91.8 35.0712 91.558 34.3834 91.4939C33.6988 91.4247 33.0529 91.5372 32.4458 91.8315C31.8419 92.1207 31.3336 92.592 30.921 93.2453C30.4664 93.965 30.2517 94.7008 30.2766 95.4527C30.2997 96.1962 30.5056 96.8876 30.8944 97.527C31.2832 98.1663 31.8014 98.6911 32.4491 99.1013L33.4895 99.7603C34.3769 100.322 35.2258 100.646 36.0363 100.73C36.8449 100.807 37.584 100.671 38.2534 100.323C38.9177 99.9723 39.4804 99.4319 39.9414 98.702C40.2412 98.2273 40.4457 97.7566 40.5548 97.2898C40.6621 96.8146 40.6693 96.3511 40.5763 95.8991C40.4782 95.4439 40.2735 95.0106 39.9622 94.599L41.5543 93.1635C42.0298 93.722 42.355 94.3603 42.5297 95.0784C42.6994 95.7933 42.7077 96.549 42.5547 97.3453C42.3965 98.1384 42.066 98.933 41.5631 99.7293Z" fill="black"/>
<path d="M59.724 51.0414L65.6658 53.885L65.2418 47.3035L67.281 45.922L67.455 54.2043L75.0661 57.4484L73.0269 58.8298L67.2472 56.2263L67.509 62.5678L65.4698 63.9492L65.2359 55.7076L57.6848 52.4228L59.724 51.0414Z" fill="black"/>
<path d="M111.036 22.9457L111.432 24.7128L104.4 26.2954L104.004 24.5282L111.036 22.9457ZM105.324 20.8154L107.409 20.3462L110.311 33.2817C110.443 33.8708 110.628 34.2933 110.865 34.5494C111.106 34.7983 111.374 34.9423 111.667 34.9815C111.965 35.0134 112.267 34.9949 112.573 34.926C112.803 34.8743 112.989 34.8201 113.131 34.7634C113.271 34.7008 113.384 34.6508 113.468 34.6132L114.313 36.391C114.183 36.4758 113.998 36.5732 113.756 36.6832C113.516 36.7991 113.202 36.9008 112.813 36.9883C112.224 37.1208 111.619 37.1241 110.996 36.998C110.38 36.8706 109.828 36.5895 109.341 36.1547C108.859 35.7185 108.53 35.1057 108.353 34.3164L105.324 20.8154Z" fill="black"/>
</svg>
