<svg width="48" height="49" viewBox="0 0 48 49" fill="none" xmlns="http://www.w3.org/2000/svg">
<rect x="1" y="1.76877" width="46" height="46" fill="#573E9B"/>
<rect x="1" y="1.76877" width="46" height="46" stroke="#2B1F5A" stroke-width="2"/>
<path d="M21.244 36.7688L16.476 18.8488H16.348C16.3693 19.2754 16.4013 19.9154 16.444 20.7688C16.4867 21.6221 16.5293 22.5394 16.572 23.5208C16.6147 24.4808 16.636 25.3554 16.636 26.1448V36.7688H12.028V13.9208H19.004L23.772 31.3928H23.868L28.764 13.9208H35.74V36.7688H30.94V25.9528C30.94 25.2274 30.9507 24.3954 30.972 23.4568C30.9933 22.5181 31.0253 21.6328 31.068 20.8008C31.1107 19.9474 31.1427 19.3074 31.164 18.8808H31.036L26.108 36.7688H21.244Z" fill="white"/>
</svg>
